<?xml version="1.0" standalone="no"?>
<!DOCTYPE svg PUBLIC "-//W3C//DTD SVG 20010904//EN"
 "http://www.w3.org/TR/2001/REC-SVG-20010904/DTD/svg10.dtd">
<svg version="1.0" xmlns="http://www.w3.org/2000/svg"
 width="600.000000pt" height="470.000000pt" viewBox="0 0 600.000000 470.000000"
 preserveAspectRatio="xMidYMid meet">
<metadata>
Created by potrace 1.16, written by Peter Selinger 2001-2019
</metadata>
<g transform="translate(0.000000,470.000000) scale(0.100000,-0.100000)"
fill="#000000" stroke="none">
<path d="M3360 4540 c-16 -16 -25 -18 -45 -10 -38 14 -151 12 -220 -5 -70 -17
-115 -19 -115 -5 0 5 -9 14 -19 20 -33 17 -68 -4 -82 -48 -8 -29 -23 -46 -59
-70 -27 -18 -52 -41 -55 -53 -7 -20 -12 -21 -66 -15 -58 7 -59 7 -79 -26 -11
-18 -20 -41 -20 -50 0 -10 -4 -18 -9 -18 -19 0 -41 -32 -41 -60 0 -34 -31 -60
-70 -60 -38 0 -50 -18 -50 -73 0 -33 -5 -54 -15 -61 -8 -6 -19 -31 -24 -56
-36 -171 -51 -231 -67 -261 -17 -30 -32 -145 -34 -251 -1 -35 -42 -68 -86 -68
-42 0 -285 122 -377 189 -106 77 -194 100 -250 62 -92 -60 -219 -323 -234
-485 -7 -76 19 -174 66 -248 33 -51 55 -67 281 -201 199 -117 225 -147 224
-261 -1 -121 -57 -241 -122 -264 -25 -9 -44 -5 -114 20 -222 80 -271 84 -383
29 -80 -40 -139 -96 -168 -160 -29 -63 -36 -285 -13 -434 8 -56 17 -145 20
-197 9 -165 53 -296 137 -406 94 -123 298 -215 546 -244 106 -13 137 -11 353
25 223 37 333 48 378 36 48 -13 89 -54 209 -209 53 -68 119 -143 147 -168 62
-54 204 -126 306 -154 194 -54 474 -67 629 -30 245 59 497 277 589 510 31 80
41 135 42 228 0 137 -45 234 -137 292 -24 15 -57 46 -73 69 -37 51 -99 97
-215 158 -106 57 -138 82 -155 123 -16 38 -2 57 46 66 19 3 129 -2 244 -12
320 -27 434 -4 543 109 129 135 166 220 166 382 1 216 -68 464 -164 595 -57
78 -230 180 -305 180 -28 0 -159 70 -171 91 -17 32 -1 195 24 237 19 32 19 40
8 93 -11 54 -10 60 8 78 11 11 23 31 26 44 9 34 -12 107 -30 107 -8 0 -17 12
-21 28 -3 15 -12 52 -21 82 -8 30 -20 117 -27 192 -13 132 -29 188 -56 188 -5
0 -12 11 -16 25 -3 13 -12 29 -20 36 -8 6 -14 23 -14 38 0 45 -26 71 -70 71
-35 0 -43 4 -65 40 -14 22 -28 54 -32 70 -3 17 -6 30 -7 31 0 0 -41 3 -91 5
-49 3 -94 9 -100 15 -5 5 -16 9 -25 9 -9 0 -20 13 -25 33 -8 25 -16 33 -38 35
-16 2 -34 -1 -41 -7 -9 -8 -22 -8 -45 0 -17 6 -52 9 -78 7 -38 -3 -51 1 -69
19 -28 28 -38 29 -64 3z m-200 -214 c0 -8 10 -27 23 -41 17 -20 36 -28 84 -35
40 -5 68 -15 82 -29 17 -17 33 -21 91 -21 78 0 125 17 135 50 9 29 57 27 70
-2 9 -20 18 -23 65 -23 38 0 65 -6 85 -19 19 -13 44 -19 66 -17 33 2 37 0 42
-28 5 -25 11 -31 33 -31 21 0 25 -3 18 -17 -4 -10 -9 -35 -12 -55 -5 -46 15
-59 54 -33 19 13 29 14 37 6 9 -9 3 -18 -21 -37 -54 -43 -32 -89 24 -49 19 13
22 12 34 -10 16 -30 6 -44 -21 -27 -16 10 -20 10 -26 -4 -7 -18 15 -36 37 -30
47 12 45 16 42 -75 -3 -62 0 -95 11 -115 32 -65 27 -181 -8 -167 -8 2 -27 -4
-42 -15 -48 -34 -156 -75 -209 -79 l-51 -5 -6 39 c-14 83 -74 107 -292 118
-171 8 -220 24 -306 99 -49 43 -108 86 -168 123 -43 27 -105 24 -190 -10 l-53
-22 -24 30 c-13 17 -24 40 -24 52 0 12 -7 28 -15 37 -16 16 -65 143 -65 169 0
24 22 67 33 67 18 0 47 32 47 52 0 13 7 18 25 18 42 0 121 46 134 77 11 28 12
28 100 28 77 0 94 3 118 22 33 26 43 28 43 9z m-157 -657 c12 -6 56 -46 97
-88 65 -66 86 -81 160 -111 75 -31 96 -35 175 -35 50 0 116 3 148 8 55 7 57 6
57 -16 0 -62 -89 -92 -248 -85 -210 10 -350 71 -436 188 -61 83 -65 98 -32
127 30 26 47 28 79 12z m-1221 -156 c35 -16 113 -64 175 -106 111 -76 159 -97
221 -97 19 0 31 -4 27 -10 -14 -23 25 -78 81 -116 38 -25 73 -60 99 -98 48
-71 105 -106 174 -106 68 0 124 44 137 108 8 40 17 40 51 1 36 -40 123 -84
205 -103 36 -8 96 -27 134 -41 162 -61 273 -93 348 -99 114 -10 152 -36 70
-49 -49 -8 -64 -23 -64 -64 0 -79 115 -139 250 -131 85 5 101 18 130 108 32
99 36 102 120 111 85 9 117 28 137 79 l15 37 45 -13 c25 -8 100 -16 167 -18
73 -3 139 -11 166 -21 188 -66 291 -238 294 -490 1 -112 -21 -162 -102 -235
-87 -77 -151 -105 -242 -105 -70 0 -82 4 -184 54 -122 60 -181 69 -249 36
-108 -51 -193 -181 -204 -312 l-6 -71 -76 -12 c-130 -20 -205 -40 -242 -64
-42 -28 -94 -122 -133 -241 -52 -159 -73 -176 -230 -186 -120 -7 -174 -23
-218 -66 -25 -24 -33 -39 -57 -105 l-10 -27 -55 28 c-30 16 -73 32 -95 36 -38
6 -41 9 -41 39 0 81 -98 168 -276 245 -126 55 -191 96 -210 133 -8 16 -19 81
-25 146 -11 129 -21 178 -50 234 -23 44 -54 62 -133 77 -33 6 -68 18 -78 28
-25 22 -24 70 2 78 28 9 84 78 113 138 48 102 60 221 31 318 -24 80 -72 119
-264 219 -175 90 -250 142 -275 190 -46 90 10 384 98 507 57 80 115 89 229 36z
m608 -179 c0 -41 5 -84 10 -95 16 -29 58 -46 140 -58 61 -8 79 -15 98 -36 25
-29 29 -67 8 -84 -17 -15 -98 -25 -130 -17 -35 9 -94 62 -127 115 -16 24 -54
64 -85 90 -32 25 -59 51 -61 58 -2 6 12 17 32 23 27 9 41 21 51 46 11 26 20
34 39 34 24 0 25 -2 25 -76z m1620 -350 c22 -15 40 -32 40 -38 0 -31 -28 -46
-109 -60 -45 -8 -91 -22 -101 -31 -11 -10 -37 -52 -59 -95 -22 -42 -47 -83
-56 -90 -10 -8 -38 -11 -85 -8 -76 4 -125 29 -125 64 0 15 9 20 42 22 49 4 78
30 157 142 65 92 77 102 129 111 88 14 126 10 167 -17z m826 -774 c-10 -103
-31 -161 -80 -228 -50 -68 -167 -164 -243 -199 -82 -38 -128 -38 -333 -4 -218
37 -220 37 -270 11 -22 -11 -42 -20 -46 -20 -12 0 4 138 21 169 22 44 73 100
106 117 48 25 109 18 195 -23 65 -31 91 -37 160 -41 151 -8 280 28 362 102 41
37 122 153 122 174 0 7 3 12 6 12 4 0 3 -32 0 -70z m-3321 -81 l63 -19 -4 -73
c-4 -62 -2 -77 18 -111 38 -64 65 -78 172 -87 94 -8 124 -17 159 -47 24 -22
22 -39 -20 -128 -34 -71 -38 -87 -38 -159 0 -62 5 -89 22 -120 38 -71 51 -78
176 -86 177 -11 275 -40 296 -85 6 -14 11 -50 11 -80 l0 -55 -102 -49 c-135
-63 -205 -83 -298 -82 -224 1 -556 200 -700 419 -68 103 -91 175 -97 308 -12
249 59 439 177 474 41 12 78 7 165 -20z m198 -55 c23 -4 37 -12 37 -21 0 -30
36 -74 75 -93 31 -15 52 -18 91 -14 47 6 53 4 87 -26 53 -46 72 -116 63 -232
-13 -166 10 -194 259 -328 190 -101 225 -131 225 -187 0 -39 -1 -41 -37 -47
-21 -3 -48 -9 -59 -12 -19 -5 -22 0 -28 39 -4 24 -20 65 -35 89 -40 64 -91 85
-242 104 -68 8 -137 22 -154 30 -69 32 -85 127 -39 237 34 83 42 158 20 191
-22 34 -54 49 -160 75 -153 38 -189 66 -179 141 8 66 7 65 76 54z m2077 -399
c0 -14 7 -43 16 -65 9 -23 13 -44 9 -48 -4 -4 -34 -5 -68 -3 -181 11 -226 1
-254 -53 -11 -21 -18 -70 -22 -149 -6 -115 -7 -120 -34 -142 -35 -27 -153 -68
-266 -92 -46 -9 -98 -26 -115 -38 -33 -21 -86 -114 -86 -150 0 -19 -9 -13 -54
33 l-55 54 20 53 c40 108 72 125 229 125 155 0 209 40 251 184 52 182 86 225
210 270 78 28 199 56 212 49 4 -2 7 -15 7 -28z m219 -215 c181 -93 226 -150
226 -290 0 -75 -4 -93 -32 -152 -36 -77 -85 -128 -212 -223 -167 -126 -316
-185 -467 -185 -159 0 -320 63 -433 169 -52 48 -61 62 -61 91 0 50 42 133 81
162 53 39 68 45 179 67 173 35 218 76 240 216 17 110 31 155 54 170 26 19 86
19 156 0 74 -20 103 -19 131 5 13 10 28 19 32 20 5 0 53 -23 106 -50z m-2704
-272 c63 -63 352 -230 450 -261 59 -18 93 -22 210 -22 164 1 205 10 405 92
262 107 348 87 540 -128 189 -210 329 -304 497 -332 83 -13 192 2 330 48 260
87 470 240 550 402 35 71 38 83 38 164 0 80 1 86 16 73 23 -21 67 -123 78
-178 5 -26 5 -67 0 -94 -20 -104 -139 -301 -253 -416 -143 -145 -347 -205
-659 -193 -169 6 -297 35 -427 98 -102 48 -117 61 -235 209 -119 149 -168 196
-235 229 -48 23 -67 26 -150 25 -59 -1 -146 -12 -230 -29 -94 -18 -181 -28
-285 -32 -189 -7 -235 4 -405 95 -163 87 -237 158 -304 293 -52 105 -63 156
-14 65 18 -32 55 -80 83 -108z"/>
<path d="M2967 4223 c-4 -3 -7 -16 -7 -29 0 -18 19 -30 118 -74 298 -133 257
-121 449 -130 95 -5 176 -11 181 -14 17 -10 33 11 27 36 -6 22 -15 27 -62 37
-31 6 -105 11 -164 11 -123 0 -137 4 -369 109 -131 59 -159 68 -173 54z"/>
<path d="M2965 4075 c-20 -19 -25 -34 -25 -73 0 -41 5 -53 33 -79 17 -18 45
-37 60 -42 59 -23 137 43 137 115 0 84 -145 140 -205 79z m115 -30 c54 -28 62
-88 17 -120 -30 -21 -51 -19 -86 11 -36 30 -39 61 -10 98 24 30 38 32 79 11z"/>
<path d="M3603 3949 c-31 -20 -33 -25 -33 -77 1 -65 13 -86 63 -107 93 -38
167 7 167 102 0 48 -30 81 -87 94 -56 13 -75 11 -110 -12z m142 -39 c38 -31 3
-120 -46 -120 -23 0 -60 18 -71 34 -14 20 -8 74 9 91 19 19 83 16 108 -5z"/>
<path d="M2901 2940 c-84 -20 -126 -83 -126 -185 1 -79 20 -123 68 -158 56
-43 237 -31 296 19 16 13 39 44 50 67 20 41 20 47 7 91 -22 71 -59 121 -108
144 -50 24 -138 34 -187 22z m154 -76 c47 -31 70 -121 44 -178 -16 -35 -67
-56 -134 -56 -87 0 -111 18 -139 103 -10 31 15 107 41 124 53 35 141 38 188 7z"/>
<path d="M2643 2140 c-69 -42 -121 -147 -108 -219 16 -84 172 -181 270 -167
62 8 102 30 121 68 22 42 29 136 15 181 -14 41 -96 122 -146 143 -49 20 -114
18 -152 -6z m135 -55 c78 -33 112 -92 92 -163 -16 -61 -59 -102 -107 -102 -43
0 -132 46 -157 82 -32 45 -12 124 43 171 37 31 74 34 129 12z"/>
</g>
</svg>
