<svg width="783" height="571" viewBox="0 0 783 571" fill="none" xmlns="http://www.w3.org/2000/svg">
<path d="M0.670518 11.1589C0.312893 5.20723 5.20981 0.26702 11.1644 0.572211L500.837 25.6695C513.057 26.2959 513.673 44.1155 501.525 45.5841L465 50L57.6028 88.6832C52.6622 89.1523 48.8131 93.1739 48.5609 98.1303L29 482.623L0.670518 11.1589Z" fill="#FFC550"/>
<path d="M706.04 491.343C710.83 490.926 714.645 487.159 715.123 482.374L739.888 234.394C741.107 222.188 758.995 222.48 759.816 234.719L781.521 558.512C781.93 564.621 776.804 569.66 770.703 569.146L400.25 537.922C388.054 536.894 388.029 519.057 400.222 517.995L706.04 491.343Z" fill="#FFECC5"/>
</svg>
