<svg width="1184" height="805" viewBox="0 0 1184 805" fill="none" xmlns="http://www.w3.org/2000/svg">
<g clip-path="url(#clip0_7_2)">
<path d="M-2 10.5C-2 4.97717 2.47715 0.5 8 0.5H1173.09C1180.2 0.5 1185.04 7.71484 1182.34 14.2948L1016.55 418.51C1015.27 421.625 1012.51 423.888 1009.21 424.531L9.91193 619.18C3.73796 620.382 -2 615.654 -2 609.364V10.5Z" fill="#FFE2A7"/>
<path d="M-2 243.333C-2 238.506 1.44801 234.368 6.19575 233.497L975.206 55.7462C979.295 54.9962 983.422 56.8541 985.571 60.4128L1088.5 230.853C1090.08 233.472 1090.37 236.671 1089.3 239.536L983.887 520.472C982.708 523.612 980.035 525.952 976.766 526.704L155.604 715.631C154.542 715.875 153.527 716.292 152.599 716.864L81 761L13.2723 803.024C6.61075 807.157 -2 802.366 -2 794.527V243.333Z" fill="#FFC550"/>
</g>
<defs>
<clipPath id="clip0_7_2">
<rect width="1184" height="805" fill="white"/>
</clipPath>
</defs>
</svg>
