<?xml version="1.0" standalone="no"?>
<!DOCTYPE svg PUBLIC "-//W3C//DTD SVG 20010904//EN"
 "http://www.w3.org/TR/2001/REC-SVG-20010904/DTD/svg10.dtd">
<svg version="1.0" xmlns="http://www.w3.org/2000/svg"
 width="1280.000000pt" height="1280.000000pt" viewBox="0 0 1280.000000 1280.000000"
 preserveAspectRatio="xMidYMid meet">
<metadata>
Created by potrace 1.16, written by Peter Selinger 2001-2019
</metadata>
<g transform="translate(0.000000,1280.000000) scale(0.100000,-0.100000)"
fill="#000000" stroke="none">
<path d="M8390 7188 l-85 -44 3 -54 c2 -30 -2 -71 -8 -91 -11 -33 -10 -40 16
-79 l28 -42 -22 -39 c-18 -32 -20 -42 -11 -66 16 -38 25 -333 11 -333 -23 0
-41 33 -87 157 -40 105 -48 140 -49 198 l-1 69 -45 16 c-39 14 -45 19 -42 40
2 14 11 33 19 42 27 30 -2 169 -40 190 -16 9 -77 13 -219 12 -192 -1 -199 -2
-250 -28 -29 -14 -64 -34 -77 -45 l-24 -18 36 -118 c41 -129 44 -155 23 -188
-12 -17 -13 -33 -5 -72 6 -27 8 -82 4 -120 -5 -69 -5 -72 25 -100 36 -35 38
-64 6 -94 l-24 -22 6 -213 c4 -196 3 -220 -16 -292 -12 -44 -24 -105 -28 -136
l-7 -58 44 -19 c24 -11 66 -26 92 -33 47 -12 48 -12 152 40 118 58 112 48 91
167 -10 59 -15 70 -33 73 -38 6 -45 25 -23 67 18 36 20 60 20 268 l0 228 23
-6 c12 -4 25 -10 29 -14 9 -9 66 -213 79 -286 10 -51 17 -64 40 -78 32 -18 38
-50 14 -81 -10 -13 -11 -23 -5 -31 11 -14 46 -158 55 -232 6 -47 10 -53 38
-62 56 -18 226 -42 254 -35 50 11 137 46 191 78 42 24 52 35 48 51 -2 11 -12
47 -21 79 -16 58 -17 133 -1 168 5 11 -3 25 -28 48 -37 34 -37 46 -4 89 17 23
19 45 17 289 -1 255 0 265 20 286 26 28 26 40 2 80 -18 29 -19 40 -11 126 5
52 16 139 23 193 10 67 11 100 4 104 -6 4 -45 8 -86 11 -74 4 -78 3 -161 -40z"/>
<path d="M3115 7185 c-33 -20 -72 -48 -86 -61 l-27 -25 19 -82 c21 -93 25
-257 8 -274 -9 -9 -9 -40 1 -124 8 -68 11 -155 7 -226 l-6 -116 29 -27 c38
-35 38 -53 0 -80 l-30 -21 0 -180 c0 -155 -3 -189 -22 -254 -12 -41 -19 -77
-15 -81 10 -11 88 -23 145 -24 41 0 68 8 121 35 38 19 76 41 85 50 19 19 21
72 4 126 -9 33 -9 42 6 58 14 16 16 40 14 182 -3 162 -3 165 24 209 48 81 96
130 129 130 44 0 45 -22 3 -84 -34 -52 -36 -58 -24 -86 13 -30 9 -157 -6 -222
-5 -23 -2 -29 20 -39 33 -16 34 -45 1 -79 -22 -23 -27 -39 -32 -112 l-6 -85
38 -29 c21 -16 54 -42 73 -59 34 -29 38 -30 140 -30 78 0 106 3 110 13 4 14
15 24 46 46 19 13 19 15 -10 77 l-29 64 3 203 2 203 -30 10 c-16 6 -30 17 -30
25 0 26 30 62 57 69 25 6 26 8 19 67 -3 34 -6 87 -6 119 0 55 -3 61 -49 117
-55 66 -100 89 -189 98 -74 7 -162 -21 -177 -56 -33 -78 -52 -105 -76 -105
l-24 0 1 115 c1 63 8 145 16 182 15 68 14 68 -9 83 -28 19 -29 28 -3 63 16 22
20 46 22 126 l3 100 -35 7 c-19 4 -64 10 -100 14 -62 6 -68 5 -125 -30z"/>
<path d="M5815 7199 c-59 -32 -123 -80 -129 -96 -4 -8 1 -42 9 -74 20 -75 28
-265 12 -290 -8 -13 -8 -45 2 -124 7 -67 9 -151 5 -228 l-7 -123 25 -11 c46
-21 41 -63 -10 -92 -15 -9 -17 -31 -17 -198 0 -158 -3 -199 -20 -255 -14 -48
-16 -71 -9 -78 6 -6 49 -13 95 -16 79 -6 88 -4 154 26 39 17 80 41 93 52 26
25 29 72 7 125 -14 33 -14 38 2 56 16 17 18 41 18 191 l0 171 29 45 c39 61 96
120 117 120 25 0 49 -11 49 -21 0 -5 -16 -33 -36 -61 -26 -39 -34 -59 -30 -78
17 -68 18 -107 6 -177 l-13 -76 26 -19 c35 -25 34 -48 -3 -83 -29 -27 -30 -33
-30 -111 l0 -83 68 -55 c78 -62 119 -73 227 -61 46 5 65 11 65 21 0 7 14 20
30 29 17 9 30 17 30 19 0 2 -14 37 -31 77 l-32 74 5 187 c3 102 2 190 -1 195
-3 5 -19 14 -34 21 -27 12 -27 12 -12 43 9 17 28 35 43 40 l27 9 -3 113 c-2
61 -9 122 -16 134 -22 43 -107 122 -144 135 -55 18 -159 16 -214 -5 -27 -10
-48 -24 -48 -30 0 -7 -11 -36 -25 -65 -20 -44 -29 -53 -47 -50 -22 3 -23 8
-26 97 -2 56 4 127 13 178 l16 86 -26 27 -27 28 21 19 c15 14 24 40 31 94 17
130 16 137 -27 148 -21 5 -67 12 -103 16 -55 5 -71 3 -105 -16z"/>
<path d="M9193 7175 c-38 -20 -81 -46 -96 -58 l-27 -22 13 -124 c10 -96 17
-125 30 -133 24 -13 21 -45 -5 -53 -21 -7 -21 -9 -14 -198 4 -119 3 -194 -4
-202 -5 -6 -10 -72 -11 -146 -1 -118 1 -135 17 -144 25 -15 54 -44 54 -55 0
-5 -13 -16 -29 -24 l-29 -15 -7 -128 c-5 -88 -14 -145 -27 -181 -11 -30 -16
-58 -12 -62 13 -13 181 -33 228 -28 24 3 67 22 104 44 l62 39 -6 65 c-4 44
-12 72 -25 86 -24 26 -24 35 2 68 16 20 20 38 18 79 -6 120 -1 144 37 187 40
44 54 48 78 24 14 -14 14 -19 -5 -57 -19 -36 -21 -51 -15 -132 10 -143 14
-154 52 -170 40 -17 41 -21 11 -63 -21 -28 -23 -38 -16 -88 4 -31 10 -58 12
-61 3 -2 44 -17 92 -33 84 -27 90 -27 147 -14 33 8 72 23 87 33 14 10 36 22
49 25 30 10 28 34 -8 78 -24 28 -34 58 -50 135 -31 155 -26 143 -65 143 -30 0
-35 3 -35 23 0 13 7 32 15 43 10 14 14 47 15 120 0 117 1 117 -103 163 -58 26
-67 33 -58 48 17 33 199 202 234 219 29 14 36 24 41 57 9 52 0 57 -94 57 -55
-1 -96 -8 -154 -28 -78 -27 -79 -28 -97 -76 -19 -50 -119 -190 -143 -199 -8
-3 -22 3 -32 14 -15 17 -16 36 -11 186 3 93 8 175 11 183 4 10 -4 21 -24 32
-38 21 -38 37 0 73 25 24 30 37 30 74 1 25 7 82 15 126 8 43 12 81 10 83 -9 9
-85 22 -136 22 -46 0 -71 -7 -126 -35z"/>
<path d="M8762 7164 c-29 -19 -55 -41 -58 -49 -3 -7 0 -32 6 -55 23 -87 30
-154 19 -188 -9 -28 -8 -36 6 -52 10 -11 19 -43 22 -79 5 -57 7 -61 38 -71 26
-9 41 -7 74 6 34 14 41 21 47 52 18 105 35 173 50 205 16 34 16 37 0 62 -17
26 -17 28 2 48 12 13 24 43 27 73 l7 51 -59 16 c-89 25 -121 22 -181 -19z"/>
<path d="M2525 7173 c-91 -8 -211 -36 -256 -59 -86 -43 -267 -202 -311 -272
-18 -30 -19 -37 -8 -78 11 -38 10 -58 -10 -152 -20 -92 -22 -126 -17 -240 5
-123 7 -134 31 -163 33 -39 33 -51 -6 -95 -31 -35 -31 -37 -19 -82 6 -25 25
-77 42 -116 62 -150 109 -199 266 -278 l82 -41 72 12 c39 6 107 25 150 42 75
29 81 30 104 15 13 -9 32 -16 40 -16 29 0 173 158 206 226 l32 64 -29 56 c-32
63 -73 103 -144 139 -73 37 -83 34 -98 -27 -21 -90 -116 -208 -166 -208 -34 0
-85 39 -124 95 l-34 50 3 155 c3 149 2 157 -19 178 -29 29 -28 43 8 77 35 34
38 56 9 97 -18 25 -20 39 -16 86 12 116 18 168 23 190 7 35 71 99 111 113 33
11 38 10 55 -11 10 -12 19 -32 19 -44 1 -11 2 -28 3 -36 1 -8 10 -30 20 -49
15 -28 17 -46 11 -95 -3 -33 -13 -72 -20 -87 -13 -24 -12 -28 5 -44 15 -14 29
-16 72 -11 124 16 143 24 207 91 69 72 81 96 81 165 0 43 -4 52 -30 71 -40 30
-43 43 -18 93 l21 45 -39 51 c-59 78 -104 100 -195 98 -41 -1 -92 -3 -114 -5z"/>
<path d="M10340 6701 c-150 -39 -159 -45 -202 -126 -43 -80 -44 -87 -22 -119
l15 -24 82 30 c72 26 90 29 147 24 111 -11 140 -23 156 -61 20 -49 18 -61 -15
-75 -23 -9 -37 -9 -64 1 -43 15 -101 2 -191 -42 -123 -62 -174 -101 -195 -149
-23 -53 -51 -194 -51 -255 0 -40 2 -43 40 -58 47 -18 58 -39 40 -73 -13 -22
-11 -27 21 -60 39 -41 102 -81 150 -94 40 -12 88 13 171 89 66 61 84 57 74
-17 -8 -59 -4 -63 86 -93 l67 -21 44 21 c24 11 52 21 63 21 11 0 43 12 72 26
l52 26 -20 37 c-10 21 -22 61 -26 89 -5 43 -10 52 -35 62 -39 17 -38 50 4 97
l34 38 -9 90 c-11 121 -11 122 2 188 10 48 10 64 -4 97 -15 37 -14 43 6 100
l22 60 -20 27 c-30 40 -91 79 -154 99 -30 9 -81 30 -112 45 -70 35 -95 35
-228 0z m165 -620 l0 -94 -35 -28 c-44 -37 -82 -38 -109 -3 -26 33 -27 60 -4
73 15 8 16 14 7 40 -10 26 -9 32 10 50 23 22 106 61 121 57 5 -1 9 -44 10 -95z"/>
<path d="M5176 6685 c-44 -19 -92 -35 -107 -35 -20 0 -47 -17 -93 -57 -89 -80
-108 -106 -98 -134 6 -15 3 -34 -9 -58 -9 -20 -29 -80 -44 -134 -29 -106 -29
-101 2 -309 17 -115 16 -115 77 -108 17 2 35 -15 36 -32 0 -4 -10 -16 -22 -27
-21 -20 -21 -21 -2 -42 34 -38 129 -107 187 -135 54 -27 57 -27 94 -12 21 9
82 21 137 27 115 12 116 13 191 126 59 91 78 149 64 200 -12 41 -28 44 -78 13
-30 -19 -51 -23 -136 -24 -55 -1 -113 -5 -129 -9 -38 -10 -48 7 -41 75 l6 56
-34 16 c-46 22 -54 49 -27 86 18 25 20 33 10 51 -7 14 -10 57 -7 118 3 84 7
99 29 127 30 38 102 66 120 48 9 -9 6 -23 -10 -59 -30 -70 -36 -126 -14 -146
23 -21 89 -47 119 -47 45 0 193 89 193 116 0 9 -11 30 -25 48 -22 28 -25 43
-27 136 l-3 105 -80 23 c-44 13 -107 25 -140 28 -53 4 -69 1 -139 -31z"/>
<path d="M4310 6689 c-30 -11 -95 -41 -145 -67 -102 -53 -132 -89 -181 -212
l-27 -70 21 -23 c31 -33 28 -63 -8 -82 l-30 -16 0 -132 c0 -72 4 -159 10 -192
9 -57 13 -63 79 -125 38 -36 77 -77 86 -92 19 -31 100 -61 195 -73 52 -6 56
-5 84 24 40 41 62 40 81 -5 14 -34 18 -36 49 -31 61 10 134 48 155 81 12 17
34 49 51 71 33 42 33 50 13 188 -7 54 -38 65 -78 27 -56 -52 -112 -73 -206
-78 -54 -3 -94 0 -108 7 -21 12 -81 118 -81 144 0 8 9 22 19 31 19 17 21 17
60 -14 l40 -33 88 17 c48 10 107 26 130 36 72 32 133 143 133 243 0 37 -1 38
-29 32 -55 -12 -55 53 0 75 30 13 31 15 27 62 -6 59 -70 193 -101 210 -13 7
-74 13 -147 15 -105 2 -134 -1 -180 -18z m104 -167 c3 -5 0 -28 -6 -51 -10
-40 -9 -45 12 -61 22 -16 22 -20 12 -63 -7 -25 -12 -60 -12 -77 0 -36 -16 -45
-53 -31 -55 21 -67 44 -67 126 0 82 14 123 52 149 24 17 54 21 62 8z"/>
<path d="M6978 6686 c-77 -27 -217 -101 -236 -125 -19 -24 -102 -192 -102
-208 0 -8 10 -27 21 -43 26 -34 20 -55 -21 -78 -28 -16 -30 -20 -30 -82 0 -36
5 -119 10 -185 l10 -120 85 -83 c47 -46 85 -88 85 -93 0 -17 81 -47 163 -60
l78 -12 32 32 c18 17 39 31 45 31 7 0 22 -16 33 -35 14 -23 28 -35 42 -35 29
1 141 47 145 60 2 6 24 35 48 65 24 29 45 62 46 72 2 10 -1 55 -5 101 -8 76
-11 84 -34 93 -21 8 -29 5 -53 -21 -45 -48 -112 -73 -213 -78 -102 -5 -117 3
-157 87 -41 88 -7 137 56 82 33 -29 40 -31 82 -25 75 11 180 40 207 58 51 33
105 154 105 233 0 33 -2 34 -32 31 -29 -3 -33 0 -36 24 -3 23 3 32 33 50 36
21 37 23 31 66 -6 43 -51 148 -80 186 -19 24 -79 35 -196 35 -75 1 -109 -4
-162 -23z m114 -161 c3 -3 1 -26 -5 -50 -9 -41 -8 -47 13 -70 20 -21 22 -28
12 -50 -7 -14 -12 -46 -12 -70 0 -52 -9 -60 -54 -45 -59 19 -69 39 -67 132 2
110 27 152 92 157 9 0 18 -1 21 -4z"/>
</g>
</svg>
